<svg xmlns="http://www.w3.org/2000/svg" id="svg">
    <symbol id="insta" viewBox="0 0 97.395 97.395"> 
        <path d="M12.501 0h72.393c6.875 0 12.5 5.09 12.5 12.5v72.395c0 7.41-5.625 12.5-12.5 12.5H12.501C5.624 97.395 0 92.305 0 84.895V12.5C0 5.09 5.624 0 12.501 0zm58.447 10.821a4.395 4.395 0 0 0-4.383 4.385v10.495a4.396 4.396 0 0 0 4.383 4.385h11.008a4.398 4.398 0 0 0 4.385-4.385V15.206a4.397 4.397 0 0 0-4.385-4.385H70.948zm15.439 30.367h-8.572a28.486 28.486 0 0 1 1.25 8.355c0 16.2-13.556 29.332-30.275 29.332-16.718 0-30.272-13.132-30.272-29.332 0-2.904.438-5.708 1.25-8.355h-8.945v41.141a3.884 3.884 0 0 0 3.872 3.872h67.822a3.883 3.883 0 0 0 3.872-3.872V41.188h-.002zM48.789 29.533c-10.802 0-19.56 8.485-19.56 18.953s8.758 18.953 19.56 18.953c10.803 0 19.562-8.485 19.562-18.953s-8.758-18.953-19.562-18.953z"/>
    </symbol>
    <symbol id="arrow" viewBox="0 0 477.883 477.883">
        <path d="M468.456 1.808a17.063 17.063 0 0 0-15.289 0L9.433 223.675c-8.429 4.219-11.842 14.471-7.624 22.9a17.065 17.065 0 0 0 12.197 9.151l176.111 32.034 32.034 176.111a17.066 17.066 0 0 0 14.353 13.841c.803.116 1.613.173 2.423.171a17.067 17.067 0 0 0 15.275-9.438L476.07 24.711c4.222-8.427.813-18.681-7.614-22.903zM246.557 407.38l-24.986-137.353a17.066 17.066 0 0 0-13.653-13.653L70.498 231.32 422.634 55.244 246.557 407.38z"/>
    </symbol>
</svg>